<?xml version="1.0" encoding="utf-8"?>
<!-- Generator: Adobe Illustrator 21.1.0, SVG Export Plug-In . SVG Version: 6.00 Build 0)  -->
<svg version="1.1" id="Capa_1" xmlns="http://www.w3.org/2000/svg" xmlns:xlink="http://www.w3.org/1999/xlink" x="0px" y="0px"
	 viewBox="0 0 1586.3 1223.3" style="enable-background:new 0 0 1586.3 1223.3;" xml:space="preserve">
<style type="text/css">
	.st0{opacity:0.1;}
	.st1{fill:#C4E86B;}
</style>
<g>
	<g class="st0">
		<ellipse cx="793.2" cy="1153.5" rx="793.2" ry="69.8"/>
	</g>
	<g>
		<g>
			<path class="st1" d="M1432.9,1098.6c0,14.9-16,30.8-35.2,30.8c-39.9,0-61.5-14.8-61.5-42.5s0-106,0-106
				c-0.4-3.9-2.4-9.6-10.3-9.6c-8.3,0-10.2,5.3-10.6,9.9c0,0,0,78.4,0,105.6c0,27.1-21.5,42.5-61.5,42.5
				c-19.2,0-35.2-15.9-35.2-30.8c0-32.2,32.2-35,32.2-35V843.5c25.2,28.1,74.9,29,74.9,29s49.8-0.9,74.9-29v220.1
				C1400.7,1063.6,1432.9,1066.4,1432.9,1098.6z M1231.6,1058.2c0,0,0-133.1,0-133.1c-135.6-50.7-53.7,138.6-53.7,138.6
				s-32.3,2.8-32.3,35c0,14.9,16,30.8,35.2,30.8c15.8,0,27.8-7.3,27.8-7.3C1183.3,1079.9,1222.4,1058.2,1231.6,1058.2z M1485.9,1030
				c-6.1,19.5-12.2,33.6-12.2,33.6s32.2,2.8,32.2,35c0,14.9-16,30.8-35.2,30.8c-15.8,0-27.8-7.3-27.8-7.3c25.4-42.3-13.7-64-23-64
				c0,0,0-133.1,0-133.1c55.6-20.8,74.6-1.3,77.7,29c69.1,19.4,88.6-37.7,88.6-37.7C1581.3,1000.2,1498.7,1026.4,1485.9,1030z
				 M1219.2,743.7c10-21.5,33.8-69,44.9-63.7c0,0-36.7,76.6-36.7,86.3c0,9.6,3.6,31.2,17.2,51c12.3,18,36.4,39.4,81.1,39.4
				c81.7,0,98.4-71.3,98.4-90.3c0-9.1-36.9-86.2-36.9-86.2c11.1-6,35,42,45.1,63.6c10.5,22.4,41.8,34.3,41.8-17.2
				c0-50.2-55.3-97.8-74.7-100.8c-14.3-2.2-26.2,10.3-30.8,16.3c-11.7-5.1-25.9-7.6-43.1-7.6c-17.3,0-31.5,2.5-43.2,7.7
				c-4.7-6.2-16.3-18.5-30.4-16.4c-19.4,3-74.7,50.6-74.7,100.8C1177.4,778.1,1208.8,766.1,1219.2,743.7z M1250.4,607.9
				c25.3-5.3,34.4,6.3,42.4,13.5c2.3-0.6,4.7-1.1,7.1-1.5l-87.2-184.4c-46.4-96-75.5-161.8-167.9-161.8H880.2
				c-72.2,0-112.3,46.1-147.1,115.2l-4.6-22.1c0,0,21.7-49.9,49.1-71.9c-9.2-7.9-44.4-21.1-75.6-21.1H537.4
				c-92.4,0-123.7,65.8-170.1,161.8l-34.5,71.1c38.4,7.9,59.1,36.2,80.6,77.8l80.1-155.1l-50.8,246.2l-22.2-45.8
				c-32.8-67.8-54.9-114.3-120.1-114.3H184c-65.3,0-87.4,46.5-120.1,114.3L3.8,753.5c-8.9,18.3-1.5,40.7,17,49.2
				c24.1,11.1,43-3.9,49.4-17l83-160.6L99.3,899h53.8v189.7c0,22.1,17.9,40,40,40s40-17.9,40-40V899h18.2v189.7
				c0,22.1,17.9,40,40,40c22.1,0,40-17.9,40-40V899H390l-58.7-273.9c0,0,85.5,165.1,87.2,167.3l-13.2,64.2h88.2v216.2
				c0,31.3,25.4,56.6,56.6,56.6c31.3,0,56.6-25.4,56.6-56.6V856.6h25.3v215.8c0,31.3,25.4,56.6,56.6,56.6
				c31.3,0,56.6-25.4,56.6-56.6V856.6h86l-62.4-296.8l67.6-130.6v643.3c0,31.3,25.4,56.6,56.6,56.6s56.6-25.4,56.6-56.6V742.7h25.4
				v330.2c0,31.3,25.3,56.6,56.6,56.6c31.3,0,56.6-25.4,56.6-56.6V429.1l106.7,216.1C1214.2,625,1235.7,610.9,1250.4,607.9z
				 M619.7,252c69.6,0,126-56.4,126-126S689.3,0,619.7,0c-69.6,0-126,56.4-126,126S550.1,252,619.7,252z M962.5,252
				c69.6,0,126-56.4,126-126S1032.1,0,962.5,0s-126,56.4-126,126S892.9,252,962.5,252z M242.2,500c49.2,0,89-39.8,89-89
				c0-49.2-39.8-89-89-89s-89,39.8-89,89C153.2,460.1,193.1,500,242.2,500z"/>
		</g>
	</g>
</g>
</svg>
