<?xml version="1.0" encoding="utf-8"?>
<!-- Generator: Adobe Illustrator 21.1.0, SVG Export Plug-In . SVG Version: 6.00 Build 0)  -->
<svg version="1.1" id="Capa_1" xmlns="http://www.w3.org/2000/svg" xmlns:xlink="http://www.w3.org/1999/xlink" x="0px" y="0px"
	 viewBox="0 0 1211.4 1223.3" style="enable-background:new 0 0 1211.4 1223.3;" xml:space="preserve">
<style type="text/css">
	.st0{fill:#434041;}
	.st1{fill:#EDEEF0;}
	.st2{fill:#F5B63E;}
	.st3{opacity:0.52;}
	.st4{fill:#5C5B5F;}
</style>
<g>
	<path class="st0" d="M1149.7,298.3v23.3c-26.7,3.3-46.7,26.7-46.7,53.3v123.3c0,30,25,53.3,55,53.3c28.3,0,53.3-23.3,53.3-53.3
		V374.9c0-25-16.7-46.7-40-51.7v-46.7h-88.3v-88.3l0,0c0-83.3-121.6-136.6-279.9-160v-15c-6.7,0-13.3-5-13.3-13.3H421.6
		c0,8.3-6.7,13.3-15,13.3v15c-155,25-276.6,78.3-276.6,160v91.6c-30,0-58.3,0-86.6,0c0,0,0,38.3,0,41.7c-25,5-43.3,26.7-43.3,53.3
		v123.3c0,30,25,53.3,53.3,53.3c30,0,55-23.3,55-53.3V374.9c0-26.7-18.3-48.3-43.3-53.3v-20h65v704.8c0,76.6,60,115,130,115
		c0,101.6,138.3,98.3,138.3,0h414.9c0,101.6,140,98.3,140,0c70,0,130-38.3,130-115V298.3H1149.7z M799.8,884.8v16.7c0,3.3,1.7,5,5,5
		h16.7v100h-16.7c-1.7,0-5,1.7-5,5v16.7H409.9v-16.7c0-3.3-1.7-5-5-5h-16.7v-100h16.7c3.3,0,5-1.7,5-5v-16.7H799.8z M421.6,941.4
		h366.6v-5c-6.7-3.3-15-11.7-18.3-18.3H439.9c-3.3,8.3-10,13.3-18.3,18.3V941.4L421.6,941.4z M788.1,969.7H421.6v6.7
		c8.3,3.3,15,10,18.3,18.3h329.9c5-8.3,11.7-15,18.3-18.3V969.7L788.1,969.7z M453.2,63.3h304.9c33.3,0,33.3,51.7,0,51.7H453.2
		C419.9,115,419.9,63.3,453.2,63.3z M281.6,884.8c35,0,63.3,28.3,63.3,63.3s-28.3,61.7-63.3,61.7c-35,0-61.7-26.7-61.7-61.7
		S246.6,884.8,281.6,884.8z M929.8,884.8c35,0,63.3,28.3,63.3,63.3s-28.3,61.7-63.3,61.7c-33.3,0-61.7-26.7-61.7-61.7
		S896.4,884.8,929.8,884.8z"/>
	<path class="st1" d="M498.2,198.3h90v-26.7H326.6c-48.3,0-88.3,40-88.3,88.3v424.9c0,48.3,40,80,88.3,88.3
		c188.3,30,378.2,31.7,559.9,0c48.3-8.3,88.3-40,88.3-88.3V259.9c0-48.3-40-88.3-88.3-88.3H616.5v26.7h95c35,0,35,56.7,0,56.7H498.2
		C466.5,254.9,466.5,198.3,498.2,198.3z"/>
	<path class="st0" d="M749.8,548.2c36.7,0,73.3,0,110,0c53.3,15,78.3,68.3,91.6,113.3h-11.7l-21.7-25h-11.7
		c-41.7-93.3-166.6-93.3-206.6,0h-18.3l-23.3,25h-10C661.5,616.5,683.2,571.5,749.8,548.2L749.8,548.2z"/>
	<path class="st0" d="M959.8,674.8v1.7c0,46.7-38.3,76.6-85,85c-173.3,28.3-354.9,28.3-534.9,0c-45-8.3-85-38.3-85-86.6h408.2
		l23.3-25h224.9l23.3,25H959.8z"/>
	<path class="st0" d="M891.4,636.5H713.1C746.5,559.9,858.1,559.9,891.4,636.5z"/>
	<path class="st0" d="M846.4,466.5c1.7,6.7,3.3,13.3,3.3,18.3c0,28.3-21.7,50-50,50c-26.7,0-50-21.7-50-50c0-5,1.7-11.7,3.3-16.7
		C761.5,501.5,838.1,501.5,846.4,466.5L846.4,466.5z"/>
	<path class="st0" d="M799.8,408.2L799.8,408.2L799.8,408.2L799.8,408.2L799.8,408.2c-23.3,0-63.3,21.7-65,30
		c-1.7,8.3,5,11.7,11.7,11.7c8.3,3.3,8.3,0,8.3,8.3h1.7c28.3,8.3,58.3,8.3,86.6,0h1.7c0-8.3,0-5,8.3-8.3c6.7,0,13.3-3.3,11.7-11.7
		C864.8,429.9,823.1,408.2,799.8,408.2L799.8,408.2L799.8,408.2L799.8,408.2z M749.8,449.9c38.3-15,61.7-16.7,100,0
		c-6.7,0-6.7,3.3-6.7,5c-41.7-18.3-51.7-13.3-86.6,0C756.5,451.5,758.1,449.9,749.8,449.9z"/>
	<path class="st0" d="M754.8,463.2c30,8.3,61.7,8.3,90,0C844.8,498.2,754.8,498.2,754.8,463.2z"/>
	<path class="st2" d="M281.6,906.4c-23.3,0-40,20-40,41.7c0,23.3,16.7,40,40,40c21.7,0,40-16.7,40-40S303.3,906.4,281.6,906.4z"/>
	<path class="st2" d="M929.8,906.4c-21.7,0-40,20-40,41.7c0,21.7,18.3,40,40,40c23.3,0,41.7-16.7,41.7-40S953.1,906.4,929.8,906.4z"
		/>
	<g class="st3">
		<ellipse class="st4" cx="626.1" cy="1168.9" rx="471.3" ry="54.5"/>
	</g>
</g>
</svg>
