<?xml version="1.0" encoding="utf-8"?>
<!-- Generator: Adobe Illustrator 21.1.0, SVG Export Plug-In . SVG Version: 6.00 Build 0)  -->
<svg version="1.1" id="Capa_1" xmlns="http://www.w3.org/2000/svg" xmlns:xlink="http://www.w3.org/1999/xlink" x="0px" y="0px"
	 viewBox="0 0 1143 1645" style="enable-background:new 0 0 1143 1645;" xml:space="preserve">
<style type="text/css">
	.st0{opacity:0.96;}
	.st1{fill:#646569;}
	.st2{fill:#FFFFFF;}
</style>
<g>
	<g class="st0">
		
			<image style="overflow:visible;opacity:0.1;enable-background:new    ;" width="768" height="1243" xlink:href="B0D6B33.png"  transform="matrix(0.9987 0 0 0.9992 376 0)">
		</image>
		<g>
			<path class="st1" d="M1044,225.9c-129.2-83.7-451.3-90.1-472.7-117.6C550,80.8,726.9,60.6,739.1,44.8
				C751.3,29,565.5,24.2,551.2,18.5c-9-3.6,6.7-7,25.8-9.5V6.5c-1.4,0.1-2.8,0.3-4.3,0.4c-74.6,6.9-99,6.9-82.3,13.2
				c15.8,6,130.1,12.2,152.4,19.6c20.6,6.9-51.6,15.4-87.3,21.8c-51.3,9.2-96.7,19.9-114.7,38.3c-2.4,2.4-40.7,39.3,125.1,68.1
				c223.2,38.7,278.7,80.8,303.2,118.6c27.7,42.8-23.4,75.1-368.8,307C473.5,611.5,0,931,0,931v714c0,0,1098.1-1196.9,1110.3-1221
				C1120.4,404.3,1173.2,309.5,1044,225.9z"/>
		</g>
	</g>
	<g>
		<path class="st2" d="M532.1,12.1c0,0-1.4,0.3-3.5,0.9c-1,0.3-2.2,0.7-3.4,1.2c-0.6,0.3-1.2,0.6-1.7,1.1c-0.5,0.4-0.9,1.2-0.5,1.8
			c0.3,0.6,1,1,1.5,1.4c0.6,0.4,1.2,0.7,1.8,0.9c0.6,0.3,1.2,0.5,1.8,0.7c0.6,0.2,1.1,0.4,1.7,0.5c2.1,0.5,3.5,0.8,3.5,0.8v0.2
			c0,0-1.4-0.3-3.5-0.8c-0.5-0.1-1.1-0.3-1.7-0.5c-0.6-0.2-1.2-0.4-1.8-0.7c-0.6-0.3-1.2-0.6-1.9-0.9c-0.6-0.4-1.2-0.8-1.6-1.5
			c-0.4-0.7,0-1.5,0.5-2s1.2-0.8,1.8-1.1c1.2-0.6,2.4-0.9,3.5-1.2C530.7,12.3,532.1,12,532.1,12.1L532.1,12.1z"/>
		<polygon class="st2" points="549.7,22.7 572.6,25.2 572.6,25.5 549.7,22.9 		"/>
		<polygon class="st2" points="595.4,27.5 618.2,29.8 618.2,30.1 595.4,27.8 		"/>
		<polygon class="st2" points="641,32.3 663.7,35.2 663.7,35.6 640.9,32.6 		"/>
		<path class="st2" d="M686.3,39.6c0,0,1.4,0.4,3.4,1.1c1,0.4,2.2,0.9,3.2,1.9c0.5,0.4,0.9,1.4,0.4,2.1c-0.4,0.7-1.1,1.1-1.7,1.4
			c-2.6,1.4-5.4,2.1-7.5,2.6s-3.5,0.8-3.5,0.8l-0.1-0.4c0,0,1.4-0.3,3.5-0.8c2.1-0.6,4.9-1.3,7.4-2.6c0.6-0.4,1.2-0.8,1.5-1.3
			c0.4-0.5,0.1-1.2-0.3-1.6c-0.9-0.9-2.1-1.4-3.1-1.8c-2-0.8-3.4-1.1-3.4-1.1L686.3,39.6z"/>
		<polygon class="st2" points="658.2,54.4 635.8,59.2 635.7,58.7 658.1,53.9 		"/>
		<polygon class="st2" points="613.5,64.3 591.2,69.7 591.1,69.2 613.3,63.8 		"/>
		<polygon class="st2" points="569.1,75.7 547.1,82.4 547,81.8 568.9,75.1 		"/>
		<path class="st2" d="M525.7,90.3c0,0-1.3,0.6-3.3,1.5c-1,0.4-2.1,0.9-3.3,1.5c-1.2,0.6-2.5,1.2-3.7,1.9c-1.3,0.6-2.5,1.4-3.7,2
			c-0.6,0.3-1.1,0.7-1.7,1c-0.5,0.3-1,0.7-1.4,1c-1.8,1.2-2.9,2-2.9,2l-0.4-0.5c0,0,1.2-0.8,3-2.1c0.5-0.3,0.9-0.7,1.5-1
			c0.5-0.3,1.1-0.6,1.7-1c1.2-0.7,2.4-1.4,3.7-2.1c1.3-0.6,2.6-1.3,3.8-1.9c1.2-0.6,2.4-1.1,3.3-1.5c2-0.9,3.3-1.5,3.3-1.5
			L525.7,90.3z"/>
		<path class="st2" d="M503.3,119.3c0,0,1.2,0.8,2.9,2c0.9,0.6,2,1.1,3.2,1.8c0.6,0.3,1.2,0.6,1.8,1c0.6,0.3,1.3,0.6,2,0.8
			c1.3,0.5,2.6,1.1,3.9,1.6c1.3,0.4,2.4,0.9,3.5,1.2c2,0.7,3.4,1.2,3.4,1.2l-0.2,0.7c0,0-1.4-0.5-3.4-1.2c-1-0.4-2.2-0.8-3.5-1.2
			c-1.3-0.5-2.6-1.1-3.9-1.6c-0.7-0.3-1.3-0.6-2-0.8c-0.6-0.3-1.2-0.7-1.8-1c-1.2-0.7-2.4-1.2-3.2-1.8c-1.8-1.2-2.9-2-2.9-2
			L503.3,119.3z"/>
		<polygon class="st2" points="546,134.9 568.3,140 568.1,140.8 545.8,135.7 		"/>
		<polygon class="st2" points="590.7,144.7 613.2,149.2 613,150.1 590.6,145.5 		"/>
		<polygon class="st2" points="635.7,153.7 658.2,158.1 658,159.1 635.5,154.6 		"/>
		<polygon class="st2" points="680.6,162.7 703,167.3 702.8,168.3 680.4,163.6 		"/>
		<polygon class="st2" points="725.5,172.1 747.8,177 747.6,178.2 725.2,173.2 		"/>
		<polygon class="st2" points="770.2,182.2 792.4,187.7 792.1,189.1 769.9,183.5 		"/>
		<polygon class="st2" points="814.6,193.5 836.7,199.8 836.3,201.3 814.2,195 		"/>
		<polygon class="st2" points="858.7,206.5 880.4,213.8 879.8,215.5 858.1,208.1 		"/>
		<polygon class="st2" points="902,221.8 923.1,230.8 922.3,232.7 901.2,223.6 		"/>
		<path class="st2" d="M943.7,241.1c0,0,5,2.9,9.9,5.7c2.4,1.5,4.8,3.1,6.7,4.3c1.8,1.2,3,2,3,2L962,255c0,0-1.2-0.8-3-2
			s-4.1-2.7-6.5-4.3c-4.9-2.9-9.9-5.8-9.9-5.8L943.7,241.1z"/>
		<path class="st2" d="M981.2,267.8c0,0,1,1,2.5,2.6c0.7,0.8,1.6,1.6,2.5,2.7s1.8,2.2,2.8,3.3c0.5,0.6,0.9,1.2,1.3,1.7
			c0.4,0.6,0.8,1.2,1.2,1.7c0.8,1.1,1.5,2.2,2.1,3.1c1.1,1.9,1.9,3.1,1.9,3.1l-2.1,1.1c0,0-0.7-1.2-1.8-3c-0.5-0.9-1.2-2-2-3
			c-0.4-0.5-0.8-1.1-1.2-1.7s-0.8-1.2-1.2-1.7c-0.9-1.1-1.8-2.2-2.6-3.2s-1.7-1.9-2.5-2.7c-1.5-1.6-2.5-2.6-2.5-2.6L981.2,267.8z"/>
		<path class="st2" d="M1001.8,308.6c0,0,0,1.4-0.1,3.6c0,0.5,0,1.1,0,1.7c-0.1,0.6-0.2,1.3-0.2,2c-0.2,1.4-0.3,2.9-0.6,4.3
			s-0.7,2.9-1,4.2c-0.1,0.7-0.4,1.3-0.6,1.9c-0.2,0.6-0.4,1.2-0.6,1.7c-0.4,1-0.7,1.9-0.9,2.5s-0.4,0.9-0.4,0.9l-2.4-1
			c0,0,0.1-0.3,0.4-0.9c0.2-0.6,0.5-1.4,0.8-2.4c0.2-0.5,0.4-1,0.6-1.6c0.2-0.6,0.5-1.2,0.6-1.8c0.3-1.3,0.6-2.6,1-4s0.4-2.7,0.6-4
			c0.1-0.6,0.2-1.3,0.2-1.8c0-0.6,0-1.2,0-1.7c0-2.1,0.1-3.6,0.1-3.6L1001.8,308.6z"/>
		<path class="st2" d="M987.1,352.1c0,0-3,4.9-6,9.8c-3.2,4.8-6.4,9.6-6.4,9.6l-2.3-1.6c0,0,3.2-4.7,6.3-9.4c3-4.9,6-9.8,6-9.8
			L987.1,352.1z"/>
		<polygon class="st2" points="961.1,390 946.7,407.8 944.4,405.9 958.9,388.2 		"/>
		<polygon class="st2" points="931.5,425.2 916,442 913.6,439.8 929.3,423.1 		"/>
		<polygon class="st2" points="900,458.6 883.8,474.8 881.3,472.2 897.6,456.2 		"/>
		<polygon class="st2" points="867.3,490.8 850.5,506.5 847.9,503.6 864.7,488 		"/>
		<polygon class="st2" points="833.6,522 816.5,537.3 813.7,534.1 830.9,518.9 		"/>
		<polygon class="st2" points="799.3,552.4 781.9,567.4 778.9,563.9 796.4,549.1 		"/>
		<polygon class="st2" points="764.4,582.3 746.8,596.9 743.7,593.1 761.4,578.6 		"/>
		<polygon class="st2" points="729.1,611.5 711.3,626 707.9,621.8 725.9,607.5 		"/>
		<polygon class="st2" points="685.5,646.7 659.4,668.2 654.4,661.5 680.7,640.2 		"/>
		<polygon class="st2" points="635.1,687.5 607.6,709.9 601.3,703.5 628.9,681.3 		"/>
		<polygon class="st2" points="583.3,729.4 544.6,761.2 535.3,752.7 574.3,721.2 		"/>
		<polygon class="st2" points="510.4,789.3 457.1,832.4 444.4,820.9 498,778.1 		"/>
		<polygon class="st2" points="400.4,884.5 325.6,946 311.3,926.9 386.6,865.9 		"/>
		<polygon class="st2" points="256.1,1001.3 177.3,1065.5 159.3,1047.1 238.3,983.6 		"/>
		<polygon class="st2" points="107.7,1121.3 0,1209.8 0,1164 81.9,1097.8 		"/>
	</g>
</g>
</svg>
