<?xml version="1.0" encoding="utf-8"?>
<!-- Generator: Adobe Illustrator 21.1.0, SVG Export Plug-In . SVG Version: 6.00 Build 0)  -->
<svg version="1.1" id="Capa_1" xmlns="http://www.w3.org/2000/svg" xmlns:xlink="http://www.w3.org/1999/xlink" x="0px" y="0px"
	 viewBox="0 0 1652 1223.3" style="enable-background:new 0 0 1652 1223.3;" xml:space="preserve">
<style type="text/css">
	.st0{opacity:0.1;}
	.st1{fill:#C4E86B;}
	.st2{fill:#ABC03A;}
	.st3{fill:#A2AF32;}
	.st4{fill:#684F21;}
</style>
<g>
	<g class="st0">
		<ellipse cx="723.4" cy="1175.7" rx="723.4" ry="47.6"/>
	</g>
	<g>
		<path class="st1" d="M991.9,920.6l-85.1-85.3c-9.8-9.9-25.7-10-35.6-0.2c-9.9,9.8-10,25.7-0.2,35.6l6.5,6.6
			c-1.1,2-2.1,4.1-2.9,6.2L841,917.9L592.7,844c1.5-7.6,0.4-15.7-3.9-22.9L449.5,589.3c-12.6-22-39.1-45.1-86.9-43.1
			c-41.7,1.8-109.8,69.3-157.8,100.5c-22.3,14.5-21.6,53.5-25.6,76.8c-5.2,30.5-10.3,61-15.5,91.5c-5.2,30.4,20.4,44.1,45.5,30.5
			c13.7-7.4,19.8-26.3,22.2-40.5c6.2-36.6,14.5-65.1,20.7-101.7l44.1-35.8c-15,89.5-28.5,142.4-42.3,263.1
			c-4.1,35.7-9,72.3-17.4,83.3c-27.2,35.5-48.1,70.4-75.7,105.6c-39.1,49.8,30.5,88.1,66.3,42.5c24.5-31.2,49-62.4,73.4-93.6
			c34.7-44.2,33.2-116.4,42.3-170.4c27.4,59.3,54.9,118.5,82.3,177.8c12.7,27.4,25.4,54.9,38.1,82.4c23.7,51.2,96.9,24.7,71.9-29.1
			c-35.4-76.4-63.5-152.8-98.9-229.1c-11-23.9-28.3-47.1-24.6-73c6.2-42.5,12.4-85,18.5-127.5l2.2-12.4l101.1,167.4
			c6.1,10,16.7,15.6,27.6,15.6c5.7,0,11.4-1.5,16.6-4.6c1.2-0.7,2.2-1.6,3.3-2.4l258.1,76.8l44.4,35.5l24.3-25l26.6,26.9
			c7.9,8,18.3,12,28.7,12c10.2,0,20.5-3.9,28.3-11.6C1007.3,962,1007.5,936.5,991.9,920.6z"/>
		<circle class="st1" cx="404.1" cy="450.9" r="70"/>
		<path class="st1" d="M599.8,1185.4c3.7,1.3,7.6,2,11.3,2c13.9,0,27-8.7,31.9-22.6l28.3-79.7H815v74.4c0,15.6,12.6,28.2,28.2,28.2
			s28.2-12.6,28.2-28.2V990.4L814.6,945l-142.7-0.3l-12.4-12.4c-6.6-6.6-17.3-6.6-23.9,0c-6.6,6.6-6.6,17.3,0,24l7.4,7.4
			l-63.8,178.5C572.9,1159.8,582.1,1179.2,599.8,1185.4z"/>
	</g>
	<g>
		<g>
			<g>
				<g>
					<path class="st2" d="M1261.4,767.7c0,0-73.7,53-122.7-18.3c0,0-81.6,20.4-100-55c0,0-98-8.1-93.9-83.5c0,0-118.4-57-40.8-164.9
						c0,0-75.5-67.2,10.2-142.5c0,0-65.3-97.7,49-126.2c0,0,10.2-116.1,124.5-89.6c0,0,30.6-97.7,140.8-61.1c0,0,99-73.5,155.1,24.4
						c0,0,108.2-14.3,128.6,75.3c0,0,104.1,14.3,93.9,118.1c0,0,79.9,73.3,28.9,160.9c0,0,50.9,145.8-59.5,158.8
						c0,0,3.5,64.6-61.8,93.1c0,0-11.7,78-81.1,65.7c0,0-53.1,59.1-91.9,26.5L1261.4,767.7z"/>
				</g>
				<path class="st3" d="M1606.1,244.3c10.2-103.8-93.9-118.1-93.9-118.1c51.8,223.9-74.8,510.4-271.5,535.9s-296-51.3-296-51.3
					c-4.1,75.4,93.9,83.5,93.9,83.5c18.4,75.3,100,55,100,55c49,71.3,122.7,18.3,122.7,18.3l79.3-18.3
					c38.8,32.6,91.9-26.5,91.9-26.5c69.4,12.2,81.1-65.7,81.1-65.7c65.3-28.5,61.8-93.1,61.8-93.1c110.4-13,59.5-158.8,59.5-158.8
					C1686,317.7,1606.1,244.3,1606.1,244.3z"/>
			</g>
			<g>
				<path class="st4" d="M1138.7,579.8c0,0,114.3,11.8,122.5,71c8.2,59.2-12.2,536.6-12.2,536.6h122.5c0,0-53.1-536.6-34.7-575.5
					c18.4-38.9,77.6-60.9,77.6-60.9s-67.4-1.7-89.8,18.6c-22.4,20.3-51,25.4-81.7,20.3C1212.2,584.9,1181.5,576.4,1138.7,579.8z"/>
			</g>
		</g>
	</g>
</g>
</svg>
