<?xml version="1.0" encoding="utf-8"?>
<!-- Generator: Adobe Illustrator 21.1.0, SVG Export Plug-In . SVG Version: 6.00 Build 0)  -->
<svg version="1.1" id="Capa_1" xmlns="http://www.w3.org/2000/svg" xmlns:xlink="http://www.w3.org/1999/xlink" x="0px" y="0px"
	 viewBox="0 0 1736.9 1247.5" style="enable-background:new 0 0 1736.9 1247.5;" xml:space="preserve">
<style type="text/css">
	.st0{fill:#1F140F;}
	.st1{fill:#A1B85D;}
	.st2{opacity:0.5;}
	.st3{fill:#C4E86B;}
	.st4{opacity:0.25;}
	.st5{fill:#D3D3D3;}
	.st6{fill:#646569;}
	.st7{fill:#9B999E;}
	.st8{fill:#C3C4CA;}
	.st9{fill:none;stroke:#C3C4CA;stroke-width:5.0049;stroke-miterlimit:10;}
	.st10{fill:none;stroke:#AFAEB4;stroke-width:5.0049;stroke-miterlimit:10;}
	.st11{fill:none;stroke:#C3C4CA;stroke-width:3.003;stroke-miterlimit:10;}
</style>
<g>
	<path class="st0" d="M145.4,878.1"/>
	<line class="st1" x1="1267.8" y1="597.1" x2="1123.4" y2="549.4"/>
	<g class="st2">
		<polygon class="st0" points="259.2,1088.1 1240.6,478 1389.5,532.1 414.9,1145.1 		"/>
	</g>
	<polygon class="st3" points="414.9,1145.1 259.2,1088.1 276.7,806.7 414.9,851.2 	"/>
	<g class="st4">
		<polygon class="st0" points="207.4,1234.4 414.9,1145.1 259.2,1088.1 0,1176.3 		"/>
	</g>
	<polygon class="st5" points="148.9,884.8 20.4,1175.5 182,1234.4 299.9,936.6 	"/>
	<g class="st4">
		<polygon class="st6" points="1240.6,478 1606.7,317.4 1736.9,372.4 1389.5,532.1 		"/>
	</g>
	<polygon class="st7" points="1346,76.8 1520.2,343.8 1662.6,396 1503.1,128.1 	"/>
	<polygon class="st3" points="1389.5,532.1 1240.6,478 1240.6,155.5 1389.5,205 	"/>
	<polygon class="st8" points="1348.3,76.8 1237.1,154.3 1388.2,206.1 1503.1,127.5 	"/>
	<polygon class="st8" points="148.9,884.8 1240.6,155.5 1385,203.2 299.9,936.6 	"/>
	<g>
		<polygon class="st9" points="147.2,775.1 1348.2,4.6 1348.2,80.1 150.6,884.8 		"/>
		<polyline class="st9" points="150.6,884.8 20.4,1175.5 4.9,1049.7 147.2,775.1 243.2,819 259.2,707.3 349.8,746.3 354.2,646.7 
			439.9,683.1 460.9,582.3 537.3,618.2 545.7,524.7 623.6,564.2 635.6,467.3 711.9,504.9 716.8,415.6 793.7,450 796.8,364.6 
			868.6,399.8 876.3,314.6 948.5,347.7 957.7,262.7 1024.2,296.9 1036.4,212.5 1097,248.1 1108.8,166.4 1169,199.7 1184.2,118.3 
			1240.6,155.5 1251.2,70.7 1303.6,106.4 1315,31.3 1346,76.8 1348.2,9.9 1426.5,102.4 		"/>
	</g>
	<g>
		<polygon class="st10" points="296.6,836.7 1503.1,52.6 1503.1,128.1 299.9,936.6 		"/>
		<polyline class="st10" points="299.9,936.6 182,1234.4 182,1113.6 191.2,1091.4 296.6,836.7 394.7,864.2 413.3,757.1 496,795.5 
			500.4,695.9 586,732.2 607.1,631.5 683.5,667.4 691.9,573.8 769.8,613.3 781.8,516.5 858.1,554.1 863,464.8 939.9,499.2 
			943,413.8 1014.8,449 1022.5,363.8 1094.7,396.9 1103.9,311.9 1170.4,346.1 1182.6,261.7 1243.2,297.3 1254.9,215.6 1315.2,248.9 
			1330.4,167.5 1386.8,204.7 1395.8,122.4 1452.9,161.6 1457,88.6 1503.1,128.1 1662.6,396 1662.6,301.6 1503.1,52.6 		"/>
	</g>
	<path class="st11" d="M182,1113.6"/>
</g>
</svg>
