<?xml version="1.0" encoding="utf-8"?>
<!-- Generator: Adobe Illustrator 21.1.0, SVG Export Plug-In . SVG Version: 6.00 Build 0)  -->
<svg version="1.1" id="Capa_1" xmlns="http://www.w3.org/2000/svg" xmlns:xlink="http://www.w3.org/1999/xlink" x="0px" y="0px"
	 viewBox="0 0 859.9 1248.6" style="enable-background:new 0 0 859.9 1248.6;" xml:space="preserve">
<style type="text/css">
	.st0{opacity:0.1;}
	.st1{fill:#C4E86B;}
	
		.st2{fill:none;stroke:#434041;stroke-width:7.8407;stroke-miterlimit:10;stroke-dasharray:15.6814,15.6814,15.6814,15.6814,15.6814,15.6814;}
	.st3{fill:#434041;}
</style>
<ellipse class="st0" cx="798.6" cy="234" rx="61.3" ry="4.3"/>
<g>
	<ellipse class="st0" cx="122.6" cy="1240" rx="122.6" ry="8.7"/>
	<g>
		<g>
			<path class="st1" d="M122.6,916C60,916,9.2,966.8,9.2,1029.4c0,0,0,0,0,0v0.4c0,17.1,4.6,33.8,13.2,48.5l15.7,26.8l76.6,130.3
				c2.6,4.4,8.3,5.9,12.7,3.3c1.3-0.8,2.5-1.9,3.3-3.3l76.6-130.3l15.7-26.8c8.6-14.7,13.2-31.5,13.2-48.5v-0.4
				C236.1,966.8,185.3,916,122.6,916C122.6,916,122.6,916,122.6,916z M122.6,1070.5c-24.9,0-45-20.2-45-45c0-24.9,20.2-45,45-45
				c24.9,0,45,20.2,45,45C167.6,1050.4,147.5,1070.5,122.6,1070.5z"/>
		</g>
	</g>
	<path class="st2" d="M798.8,74.7c0,0-674.7-420.2-674.7,786.7"/>
	<polygon class="st3" points="93.7,861.4 154.5,861.4 122.6,910.9 	"/>
	<g>
		<g>
			<path class="st1" d="M798.8,62.4c-33.2,0-60.2,26.9-60.2,60.2v0v0.2c0,9,2.4,17.9,7,25.7l8.3,14.2l40.6,69.1
				c1.4,2.3,4.4,3.1,6.7,1.7c0.7-0.4,1.3-1,1.7-1.7l40.6-69.1l8.3-14.2c4.6-7.8,7-16.7,7-25.7v-0.2C859,89.4,832.1,62.4,798.8,62.4
				L798.8,62.4z M798.8,144.4c-13.2,0-23.9-10.7-23.9-23.9c0-13.2,10.7-23.9,23.9-23.9c13.2,0,23.9,10.7,23.9,23.9
				C822.7,133.7,812,144.4,798.8,144.4z"/>
		</g>
	</g>
</g>
</svg>
