<?xml version="1.0" encoding="utf-8"?>
<!-- Generator: Adobe Illustrator 21.1.0, SVG Export Plug-In . SVG Version: 6.00 Build 0)  -->
<svg version="1.1" id="Capa_1" xmlns="http://www.w3.org/2000/svg" xmlns:xlink="http://www.w3.org/1999/xlink" x="0px" y="0px"
	 viewBox="0 0 776.8 1223" style="enable-background:new 0 0 776.8 1223;" xml:space="preserve">
<style type="text/css">
	.st0{fill:#D7D9DD;}
	.st1{fill:#799900;}
</style>
<g>
	<path class="st0" d="M753.2,1160.2V388L358,170.2L56.1,337.8c-6-5.3-13.9-8.6-22.7-8.6C15,329.1,0,343.5,0,361.3s15,32.2,33.4,32.2
		s33.4-14.4,33.4-32.2c0-2.5-0.3-4.8-0.9-7.1l292-162.1L733.5,399v761.3c-13.6,4.1-23.6,16.1-23.6,30.6c0,17.8,15,32.2,33.4,32.2
		c18.5,0,33.4-14.4,33.4-32.2C776.8,1176.4,766.9,1164.3,753.2,1160.2z"/>
	<polygon class="st0" points="357.3,1031.6 17.7,846.8 8,863.3 357.3,1053.3 709.2,863.3 699.6,846.8 	"/>
	<path class="st1" d="M369.8,455.3v11.4c0,3.2,2.6,5.7,5.7,5.7h160.2c3.2,0,5.7-2.6,5.7-5.7v-11.4H369.8z M261.1,581.1v34.3H284
		v-34.3H261.1z M341.2,529.6h-91.5c-3.2,0-5.7,2.6-5.7,5.7v5.7h103v-5.7C347,532.2,344.4,529.7,341.2,529.6z M221.1,764.2v11.4
		h320.4v-11.4H221.1z M324.1,718.5v11.4h34.3v-11.4H324.1z M329.8,672.7V707h22.9v-34.3H329.8z M324.1,718.5v11.4h34.3v-11.4H324.1z
		 M329.8,672.7V707h22.9v-34.3H329.8z M404.2,718.5v11.4h103v-11.4H404.2z M427.1,667v17.2h57.2V667H427.1z M427.1,667v17.2h57.2
		V667H427.1z M427.1,667v17.2h57.2V667H427.1z M427.1,667v17.2h57.2V667H427.1z M427.1,684.1h57.2V667h-57.2V684.1z M404.2,644.1
		V707h103v-62.9H404.2z M495.7,689.8c0,3.2-2.6,5.7-5.7,5.7h-68.7c-3.2,0-5.7-2.6-5.7-5.7v-28.6c0-3.2,2.6-5.7,5.7-5.7H490
		c3.2,0,5.7,2.6,5.7,5.7V689.8z M427.1,667v17.2h57.2V667H427.1z M427.1,667v17.2h57.2V667H427.1z M427.1,667v17.2h57.2V667H427.1z
		 M427.1,667v17.2h57.2V667H427.1z M404.2,741.3v11.4h103v-11.4H404.2z M481.4,523.9c-9.9-0.1-19.2-4.4-25.7-11.8
		c-6.5,7.4-15.9,11.7-25.7,11.8c-1,0-2.1-0.1-3.1-0.2l0.2,34.5c0,8.2,3.6,16,9.7,21.5c6.2,5.5,14.5,8.1,22.7,6.9
		c14.5-2.3,25.1-14.9,24.8-29.6v-33.3C483.3,523.9,482.4,523.9,481.4,523.9z M404.2,741.3v11.4h103v-11.4H404.2z M404.2,718.5v11.4
		h103v-11.4H404.2z M427.1,667v17.2h57.2V667H427.1z M481.4,523.9c-9.9-0.1-19.2-4.4-25.7-11.8c-6.5,7.4-15.9,11.7-25.7,11.8
		c-1,0-2.1-0.1-3.1-0.2l0.2,34.5c0,8.2,3.6,16,9.7,21.5c6.2,5.5,14.5,8.1,22.7,6.9c14.5-2.3,25.1-14.9,24.8-29.6v-33.3
		C483.3,523.9,482.4,523.9,481.4,523.9z M427.1,667v17.2h57.2V667H427.1z M427.1,667v17.2h57.2V667H427.1z M427.1,667v17.2h57.2V667
		H427.1z M427.1,684.1h57.2V667h-57.2V684.1z M404.2,644.1V707h103v-62.9H404.2z M495.7,689.8c0,3.2-2.6,5.7-5.7,5.7h-68.7
		c-3.2,0-5.7-2.6-5.7-5.7v-28.6c0-3.2,2.6-5.7,5.7-5.7H490c3.2,0,5.7,2.6,5.7,5.7V689.8z M427.1,667v17.2h57.2V667H427.1z
		 M427.1,667v17.2h57.2V667H427.1z M427.1,667v17.2h57.2V667H427.1z M427.1,667v17.2h57.2V667H427.1z M481.4,523.9
		c-9.9-0.1-19.2-4.4-25.7-11.8c-6.5,7.4-15.9,11.7-25.7,11.8c-1,0-2.1-0.1-3.1-0.2l0.2,34.5c0,8.2,3.6,16,9.7,21.5
		c6.2,5.5,14.5,8.1,22.7,6.9c14.5-2.3,25.1-14.9,24.8-29.6v-33.3C483.3,523.9,482.4,523.9,481.4,523.9z M324.1,626.9v11.4h34.3
		v-11.4H324.1z M329.8,581.1v34.3h22.9v-34.3H329.8z M404.2,741.3v11.4h103v-11.4H404.2z M404.2,718.5v11.4h103v-11.4H404.2z
		 M427.1,667v17.2h57.2V667H427.1z M481.4,523.9c-9.9-0.1-19.2-4.4-25.7-11.8c-6.5,7.4-15.9,11.7-25.7,11.8c-1,0-2.1-0.1-3.1-0.2
		l0.2,34.5c0,8.2,3.6,16,9.7,21.5c6.2,5.5,14.5,8.1,22.7,6.9c14.5-2.3,25.1-14.9,24.8-29.6v-33.3
		C483.3,523.9,482.4,523.9,481.4,523.9z M427.1,667v17.2h57.2V667H427.1z M427.1,684.1h57.2V667h-57.2V684.1z M404.2,644.1V707h103
		v-62.9H404.2z M495.7,689.8c0,3.2-2.6,5.7-5.7,5.7h-68.7c-3.2,0-5.7-2.6-5.7-5.7v-28.6c0-3.2,2.6-5.7,5.7-5.7H490
		c3.2,0,5.7,2.6,5.7,5.7V689.8z M427.1,667v17.2h57.2V667H427.1z M427.1,667v17.2h57.2V667H427.1z M324.1,718.5v11.4h34.3v-11.4
		H324.1z M324.1,626.9v11.4h34.3v-11.4H324.1z M329.8,672.7V707h22.9v-34.3H329.8z M329.8,581.1v34.3h22.9v-34.3H329.8z
		 M481.4,523.9c-9.9-0.1-19.2-4.4-25.7-11.8c-6.5,7.4-15.9,11.7-25.7,11.8c-1,0-2.1-0.1-3.1-0.2l0.2,34.5c0,8.2,3.6,16,9.7,21.5
		c6.2,5.5,14.5,8.1,22.7,6.9c14.5-2.3,25.1-14.9,24.8-29.6v-33.3C483.3,523.9,482.4,523.9,481.4,523.9z M324.1,626.9v11.4h34.3
		v-11.4H324.1z M352.7,581.1h-22.9v34.3h22.9V581.1z M324.1,718.5v11.4h34.3v-11.4H324.1z M352.7,672.7h-22.9V707h22.9V672.7z
		 M284,581.1h-22.9v34.3H284V581.1z M255.4,626.9v11.4h34.3v-11.4H255.4z M404.2,752.8h103v-11.4h-103V752.8z M404.2,729.9h103
		v-11.4h-103V729.9z M484.3,667h-57.2v17.2h57.2V667z M455.7,512.1c-6.5,7.4-15.9,11.7-25.7,11.8c-1,0-2.1-0.1-3.1-0.2l0.2,34.5
		c0,8.2,3.6,16,9.7,21.5c6.2,5.5,14.5,8.1,22.7,6.9c14.5-2.3,25.1-14.9,24.8-29.6v-33.3c-0.9,0.1-1.9,0.2-2.9,0.2
		C471.6,523.8,462.2,519.6,455.7,512.1z M404.2,707h103v-62.9h-103V707z M415.6,661.2c0-3.2,2.6-5.7,5.7-5.7H490
		c3.2,0,5.7,2.6,5.7,5.7v28.6c0,3.2-2.6,5.7-5.7,5.7h-68.7c-3.2,0-5.7-2.6-5.7-5.7V661.2z M324.1,638.4h34.3v-11.4h-34.3V638.4z
		 M324.1,729.9h34.3v-11.4h-34.3V729.9z M352.7,581.1h-22.9v34.3h22.9V581.1z M352.7,672.7h-22.9V707h22.9V672.7z M284,581.1h-22.9
		v34.3H284V581.1z M284,672.7h-22.9V707H284V672.7z M255.4,638.4h34.3v-11.4h-34.3V638.4z M255.4,729.9h34.3v-11.4h-34.3V729.9z
		 M381.3,483.9v62.9c0,3.2-2.6,5.7-5.7,5.7h-143v200.3h160.2V644.1c0-6.3,5.1-11.4,11.4-11.4h103c6.3,0,11.4,5.1,11.4,11.4v108.7
		h11.4V483.9H381.3z M301.2,729.9c0,6.3-5.1,11.4-11.4,11.4h-34.3c-6.3,0-11.4-5.1-11.4-11.4v-17.2c0-3.2,2.6-5.7,5.7-5.7v-34.3
		c0-6.3,5.1-11.4,11.4-11.4H284c6.3,0,11.4,5.1,11.4,11.4V707c3.2,0,5.7,2.6,5.7,5.7V729.9z M301.2,638.4c0,6.3-5.1,11.4-11.4,11.4
		h-34.3c-6.3,0-11.4-5.1-11.4-11.4v-17.2c0-3.2,2.6-5.7,5.7-5.7v-34.3c0-6.3,5.1-11.4,11.4-11.4H284c6.3,0,11.4,5.1,11.4,11.4v34.3
		c3.2,0,5.7,2.6,5.7,5.7V638.4z M369.8,729.9c0,6.3-5.1,11.4-11.4,11.4h-34.3c-6.3,0-11.4-5.1-11.4-11.4v-17.2
		c0-3.2,2.6-5.7,5.7-5.7v-34.3c0-6.3,5.1-11.4,11.4-11.4h22.9c6.3,0,11.4,5.1,11.4,11.4V707c3.2,0,5.7,2.6,5.7,5.7V729.9z
		 M369.8,638.4c0,6.3-5.1,11.4-11.4,11.4h-34.3c-6.3,0-11.4-5.1-11.4-11.4v-17.2c0-3.2,2.6-5.7,5.7-5.7v-34.3
		c0-6.3,5.1-11.4,11.4-11.4h22.9c6.3,0,11.4,5.1,11.4,11.4v34.3c3.2,0,5.7,2.6,5.7,5.7V638.4z M495.7,557
		c0.3,20.5-14.6,38-34.8,40.9c-1.7,0.2-3.4,0.3-5.1,0.3c-22.1,0-40.1-17.9-40.2-40.1v-34.5c0-3.2,1.4-6.3,3.8-8.5
		c2.3-2.1,5.4-3.1,8.5-2.9c9.5,0.8,18.5-4.5,22.4-13.2c1-3,4.3-4.5,7.2-3.5c1.7,0.6,3,1.9,3.5,3.5c3.9,8.7,12.9,14.1,22.4,13.2
		c3.1-0.3,6.2,0.8,8.5,2.9c2.4,2.2,3.8,5.3,3.8,8.5V557z M255.4,626.9v11.4h34.3v-11.4H255.4z M261.1,581.1v34.3H284v-34.3H261.1z
		 M329.8,672.7V707h22.9v-34.3H329.8z M329.8,581.1v34.3h22.9v-34.3H329.8z M324.1,718.5v11.4h34.3v-11.4H324.1z M324.1,626.9v11.4
		h34.3v-11.4H324.1z M427.1,667v17.2h57.2V667H427.1z M427.1,684.1h57.2V667h-57.2V684.1z M404.2,644.1V707h103v-62.9H404.2z
		 M495.7,689.8c0,3.2-2.6,5.7-5.7,5.7h-68.7c-3.2,0-5.7-2.6-5.7-5.7v-28.6c0-3.2,2.6-5.7,5.7-5.7H490c3.2,0,5.7,2.6,5.7,5.7V689.8z
		 M481.4,523.9c-9.9-0.1-19.2-4.4-25.7-11.8c-6.5,7.4-15.9,11.7-25.7,11.8c-1,0-2.1-0.1-3.1-0.2l0.2,34.5c0,8.2,3.6,16,9.7,21.5
		c6.2,5.5,14.5,8.1,22.7,6.9c14.5-2.3,25.1-14.9,24.8-29.6v-33.3C483.3,523.9,482.4,523.9,481.4,523.9z M427.1,667v17.2h57.2V667
		H427.1z M404.2,718.5v11.4h103v-11.4H404.2z M404.2,741.3v11.4h103v-11.4H404.2z M329.8,672.7V707h22.9v-34.3H329.8z M324.1,718.5
		v11.4h34.3v-11.4H324.1z M329.8,581.1v34.3h22.9v-34.3H329.8z M324.1,626.9v11.4h34.3v-11.4H324.1z M481.4,523.9
		c-9.9-0.1-19.2-4.4-25.7-11.8c-6.5,7.4-15.9,11.7-25.7,11.8c-1,0-2.1-0.1-3.1-0.2l0.2,34.5c0,8.2,3.6,16,9.7,21.5
		c6.2,5.5,14.5,8.1,22.7,6.9c14.5-2.3,25.1-14.9,24.8-29.6v-33.3C483.3,523.9,482.4,523.9,481.4,523.9z M329.8,581.1v34.3h22.9
		v-34.3H329.8z M324.1,626.9v11.4h34.3v-11.4H324.1z M427.1,667v17.2h57.2V667H427.1z M427.1,667v17.2h57.2V667H427.1z M427.1,667
		v17.2h57.2V667H427.1z M427.1,684.1h57.2V667h-57.2V684.1z M404.2,644.1V707h103v-62.9H404.2z M495.7,689.8c0,3.2-2.6,5.7-5.7,5.7
		h-68.7c-3.2,0-5.7-2.6-5.7-5.7v-28.6c0-3.2,2.6-5.7,5.7-5.7H490c3.2,0,5.7,2.6,5.7,5.7V689.8z M427.1,667v17.2h57.2V667H427.1z
		 M427.1,667v17.2h57.2V667H427.1z M481.4,523.9c-9.9-0.1-19.2-4.4-25.7-11.8c-6.5,7.4-15.9,11.7-25.7,11.8c-1,0-2.1-0.1-3.1-0.2
		l0.2,34.5c0,8.2,3.6,16,9.7,21.5c6.2,5.5,14.5,8.1,22.7,6.9c14.5-2.3,25.1-14.9,24.8-29.6v-33.3
		C483.3,523.9,482.4,523.9,481.4,523.9z M427.1,667v17.2h57.2V667H427.1z M404.2,718.5v11.4h103v-11.4H404.2z M404.2,741.3v11.4h103
		v-11.4H404.2z M481.4,523.9c-9.9-0.1-19.2-4.4-25.7-11.8c-6.5,7.4-15.9,11.7-25.7,11.8c-1,0-2.1-0.1-3.1-0.2l0.2,34.5
		c0,8.2,3.6,16,9.7,21.5c6.2,5.5,14.5,8.1,22.7,6.9c14.5-2.3,25.1-14.9,24.8-29.6v-33.3C483.3,523.9,482.4,523.9,481.4,523.9z
		 M427.1,667v17.2h57.2V667H427.1z M427.1,667v17.2h57.2V667H427.1z M427.1,667v17.2h57.2V667H427.1z M427.1,667v17.2h57.2V667
		H427.1z M427.1,684.1h57.2V667h-57.2V684.1z M404.2,644.1V707h103v-62.9H404.2z M495.7,689.8c0,3.2-2.6,5.7-5.7,5.7h-68.7
		c-3.2,0-5.7-2.6-5.7-5.7v-28.6c0-3.2,2.6-5.7,5.7-5.7H490c3.2,0,5.7,2.6,5.7,5.7V689.8z M427.1,667v17.2h57.2V667H427.1z
		 M427.1,667v17.2h57.2V667H427.1z M427.1,667v17.2h57.2V667H427.1z M427.1,667v17.2h57.2V667H427.1z M481.4,523.9
		c-9.9-0.1-19.2-4.4-25.7-11.8c-6.5,7.4-15.9,11.7-25.7,11.8c-1,0-2.1-0.1-3.1-0.2l0.2,34.5c0,8.2,3.6,16,9.7,21.5
		c6.2,5.5,14.5,8.1,22.7,6.9c14.5-2.3,25.1-14.9,24.8-29.6v-33.3C483.3,523.9,482.4,523.9,481.4,523.9z M404.2,718.5v11.4h103v-11.4
		H404.2z M404.2,741.3v11.4h103v-11.4H404.2z"/>
	<g>
		<rect x="352.2" class="st0" width="12.3" height="18.5"/>
		<path class="st0" d="M364.5,129.8h-12.3V102h12.3V129.8z M364.5,74.1h-12.3V46.3h12.3V74.1z"/>
		<rect x="352.2" y="157.6" class="st0" width="12.3" height="18.5"/>
	</g>
</g>
</svg>
