<?xml version="1.0" encoding="utf-8"?>
<!-- Generator: Adobe Illustrator 21.1.0, SVG Export Plug-In . SVG Version: 6.00 Build 0)  -->
<svg version="1.1" id="Capa_1" xmlns="http://www.w3.org/2000/svg" xmlns:xlink="http://www.w3.org/1999/xlink" x="0px" y="0px"
	 viewBox="0 0 850.5 1223.3" style="enable-background:new 0 0 850.5 1223.3;" xml:space="preserve">
<style type="text/css">
	.st0{fill:#D7D9DD;}
	.st1{fill:#B3B2B1;}
</style>
<g>
	<path class="st0" d="M850.5,32.6c0-18-15.2-32.6-33.9-32.6s-33.9,14.6-33.9,32.6c0,14.6,10.1,26.8,23.9,31v741l-392.5,218.4
		L20,804.5V362.9l338-186c6,5.2,13.9,8.5,22.6,8.5c18.7,0,33.9-14.6,33.9-32.6s-15.2-32.6-33.9-32.6c-18.7,0-33.9,14.6-33.9,32.6
		c0,2.6,0.4,5.1,1,7.6L0,351.7v463.8l414.2,229.5l412.5-229.5v-752C840.4,59.4,850.5,47.2,850.5,32.6z"/>
	<g>
		<rect x="407.9" y="1045.1" class="st0" width="12.5" height="18.7"/>
		<path class="st0" d="M420.4,1176.5h-12.5v-28.2h12.5V1176.5z M420.4,1120.1h-12.5V1092h12.5V1120.1z"/>
		<rect x="407.9" y="1204.6" class="st0" width="12.5" height="18.7"/>
	</g>
	<g>
		<path class="st1" d="M502.8,492c5.6,0,10.2-4.6,10.2-10.2v-14.2c0-5.6-4.6-10.2-10.2-10.2h-44.4V492H502.8z M501.7,461.8v4.4h-38
			v-4.4H501.7z"/>
		<path class="st1" d="M375.7,457.4V492h76.7v-34.6H375.7z M382.1,466.2v-4.4h63.8v4.4H382.1z"/>
		<path class="st1" d="M325.2,457.4c-5.6,0-10.2,4.6-10.2,10.2v14.2c0,5.6,4.6,10.2,10.2,10.2h44.4v-34.6H325.2z M326.3,466.2v-4.4
			h38v4.4H326.3z"/>
		<path class="st1" d="M442.9,538c0.9,1.4,3,1.9,5.6,1.8c0.1,0.6,0.4,1.2,1,1.8c-1,2.5-1.5,5.3-1.5,8.1c0,12.6,10.3,22.9,22.9,22.9
			c12.6,0,22.9-10.2,22.9-22.9c0-2.9-0.5-5.6-1.5-8.1c0.5-0.6,0.9-1.2,1-1.8c2.7,0.1,4.7-0.3,5.6-1.8c1.5-2.4,0.3-8.7-4.3-14.4
			c-1.7-0.2-3.5-0.3-5.4-0.5l-3.4-0.3c-2.4-0.2-5.1-0.4-8-0.6c-0.8,0.5-1.7,1-2.6,1.3c-0.7,1.7-2.3,2.9-4.3,2.9
			c-1.9,0-3.6-1.2-4.3-2.9c-1.5-0.6-2.9-1.5-4.1-2.2c-4.1-0.2-8.4-0.4-12.7-0.6C443.1,527,441.1,535.1,442.9,538z M470.8,528.9
			c12.4,0,22.4,3.2,22.4,7.1c0,0.6-0.2,1.2-0.6,1.7c-2.4-3.1-11.2-5.4-21.7-5.4c-10.5,0-19.4,2.3-21.7,5.4c-0.4-0.5-0.6-1.1-0.6-1.7
			C448.5,532.1,458.5,528.9,470.8,528.9z"/>
		<path class="st1" d="M281,581.6l0.6-1.5l0.2-0.5c1-2.5,2.3-6.2,3.9-10.4h-6.3V565c0-4.6-3.7-8.3-8.3-8.3h-24.9
			c-4.6,0-8.3,3.7-8.3,8.3v8.3c0,4.6,3.7,8.3,8.3,8.3h29h4.1L281,581.6L281,581.6z"/>
		<path class="st1" d="M581.8,556.7H557c-4.6,0-8.3,3.7-8.3,8.3v4.1h-6.4c1.5,4,2.7,7.2,3.4,9.1l0.7,1.9l0.2,0.5l0.4,0.9h1.7h4.1h29
			c4.6,0,8.3-3.7,8.3-8.3V565C590.1,560.4,586.4,556.7,581.8,556.7z"/>
		<path class="st1" d="M423.7,524.8h-19.3c-2.7,0-4.8,2.2-4.8,4.8c0,2.7,2.2,4.8,4.8,4.8h19.3c2.7,0,4.8-2.2,4.8-4.8
			C428.5,527,426.4,524.8,423.7,524.8z"/>
		<path class="st1" d="M545.4,583.9l-1.1-3c0-0.1-21.5-56.9-24.5-65.9c-1.8-5.8-6.6-8.9-12.2-10.3c-5.7-1.5-12.6-1.8-21.1-2.5
			c-18.5-1.5-52.3-3.1-72.4-3.1c-20.1,0-53.8,1.5-72.4,3.1c-8.5,0.7-15.5,1.1-21.1,2.5c-5.6,1.4-10.4,4.6-12.2,10.3
			c-3,9-24.5,65.8-24.5,65.9l-1.1,3c-9,4.5-29.7,16.9-29.7,34.9c0,23,0,49.7,0,49.7h322.3c0,0,0-26.7,0-49.7
			C575.2,600.8,554.4,588.4,545.4,583.9z M314.1,529.2c1.2-3.4,3.2-4.9,7.9-6.3c4.6-1.2,11.5-1.6,20.1-2.4
			c18.3-1.5,52.1-3.1,71.9-3.1c19.8,0,53.6,1.5,71.9,3.1c8.6,0.7,15.4,1.1,20.1,2.4c4.7,1.4,6.7,2.8,7.9,6.3
			c2.6,7.8,18,36.4,23,49.7H291.1C296.2,565.6,311.5,537,314.1,529.2z M334.3,638.5c0,5.6-4.6,10.2-10.2,10.2H280
			c-5.6,0-10.2-4.6-10.2-10.2v-10.9c0-5.6,4.6-10.2,10.2-10.2h44.1c5.6,0,10.2,4.6,10.2,10.2V638.5z M458.3,655.5h-88.5v-7.6h88.5
			V655.5z M458.3,641.6h-88.5V634h88.5V641.6z M458.3,627.7h-88.5v-7.6h88.5V627.7z M558.2,627.6v10.9c0,5.6-4.6,10.2-10.2,10.2
			h-44.1c-5.6,0-10.2-4.6-10.2-10.2v-10.9c0-5.6,4.6-10.2,10.2-10.2H548C553.6,617.5,558.2,622,558.2,627.6z"/>
		<path class="st1" d="M248.3,673.8c0,0,0,21.5,13.8,21.5c0.7,0,1.6,0,2.8,0v30.4c0,4.6,3.7,8.3,8.3,8.3h33.1c4.6,0,8.3-3.7,8.3-8.3
			v-16.6c49.4,0,159,0,203.9,0v17.1c0,4.3,3.5,7.7,7.7,7.7h31c4.3,0,7.7-3.5,7.7-7.7v-30.9c0.4,0,0.7,0,1,0
			c13.8,0,13.8-21.5,13.8-21.5H414L248.3,673.8L248.3,673.8z"/>
		<path class="st1" d="M324.1,621.5H280c-3.4,0-6.1,2.7-6.1,6.1v10.9c0,3.4,2.7,6.1,6.1,6.1h44.1c3.4,0,6.1-2.7,6.1-6.1v-10.9
			C330.2,624.3,327.5,621.5,324.1,621.5z"/>
		<path class="st1" d="M503.9,621.5c-3.4,0-6.1,2.7-6.1,6.1v10.9c0,3.4,2.7,6.1,6.1,6.1H548c3.4,0,6.1-2.7,6.1-6.1v-10.9
			c0-3.4-2.7-6.1-6.1-6.1H503.9L503.9,621.5z"/>
	</g>
</g>
</svg>
