<?xml version="1.0" encoding="utf-8"?>
<!-- Generator: Adobe Illustrator 21.1.0, SVG Export Plug-In . SVG Version: 6.00 Build 0)  -->
<svg version="1.1" id="Capa_1" xmlns="http://www.w3.org/2000/svg" xmlns:xlink="http://www.w3.org/1999/xlink" x="0px" y="0px"
	 viewBox="0 0 771.9 1225.3" style="enable-background:new 0 0 771.9 1225.3;" xml:space="preserve">
<style type="text/css">
	.st0{fill:#D7D9DD;}
	.st1{fill:#799900;}
</style>
<g>
	<path class="st0" d="M738.6,0c-18.4,0-33.2,14.3-33.2,32c0,14.4,9.9,26.4,23.4,30.4v756.4l-373.1,205.6L65.6,863.3
		c0.5-2.3,0.9-4.6,0.9-7.1c0-17.7-14.9-32-33.2-32c-18.4,0-33.2,14.3-33.2,32c0,17.7,14.9,32,33.2,32c8.7,0,16.6-3.3,22.5-8.6
		l299.9,166.5l392.7-216.4V62.4c13.5-4,23.4-16,23.4-30.4C771.9,14.3,757,0,738.6,0z"/>
	<polygon class="st0" points="361.1,183.3 698.6,366.9 708.2,350.5 361.1,161.6 11.4,350.5 21,366.9 	"/>
	<g>
		<rect x="353.7" y="1050.3" class="st0" width="12.2" height="18.4"/>
		<path class="st0" d="M365.9,1179.3h-12.2v-27.6h12.2V1179.3z M365.9,1124h-12.2v-27.6h12.2V1124z"/>
		<rect x="353.7" y="1206.9" class="st0" width="12.2" height="18.4"/>
	</g>
	<g>
		<path class="st1" d="M190.1,619.6c0-57.9,42.9-102.3,104.5-102.3c24.6,0,43.5,7.1,57.6,16.7l-13.6,42.4
			c-10.4-7.1-25.4-13.8-42.4-13.8c-36.2,0-55.9,26.3-55.9,57.1c0,30.8,19.8,57.6,55.9,57.6c16.9,0,32.8-6.8,43.2-13.8l13.6,42.4
			c-14.1,9.6-33.9,16.7-58.5,16.7C230.7,722.5,190.1,677.8,190.1,619.6z"/>
		<path class="st1" d="M501.1,674.7v44.1h-47.2v-44.1h-86.4v-34.2L444.3,521h56.8v113h22v40.7H501.1z M416.6,634h37.3v-61.3
			L416.6,634z"/>
	</g>
</g>
</svg>
