<?xml version="1.0" encoding="utf-8"?>
<!-- Generator: Adobe Illustrator 21.1.0, SVG Export Plug-In . SVG Version: 6.00 Build 0)  -->
<svg version="1.1" id="Capa_1" xmlns="http://www.w3.org/2000/svg" xmlns:xlink="http://www.w3.org/1999/xlink" x="0px" y="0px"
	 viewBox="0 0 874.1 1225" style="enable-background:new 0 0 874.1 1225;" xml:space="preserve">
<style type="text/css">
	.st0{fill:#D7D9DD;}
	.st1{fill:#C4E86B;}
</style>
<g>
	<path class="st0" d="M874.1,426.4L415.4,173.7L65.1,368.1c-6.9-6.2-16.1-10-26.3-10C17.4,358.1,0,374.8,0,395.4
		c0,20.6,17.4,37.3,38.8,37.3c21.4,0,38.8-16.7,38.8-37.3c0-2.9-0.4-5.6-1-8.3l338.9-188.1l435.7,240.1v493.9l-412.9,227.4
		c-6.9-6.2-16.2-10.1-26.4-10.1c-21.4,0-38.8,16.7-38.8,37.3c0,20.6,17.4,37.3,38.8,37.3c21.4,0,38.8-16.7,38.8-37.3
		c0-2.8-0.4-5.5-1-8.2l424.3-233.7V426.4z"/>
	<g>
		<rect x="414.5" class="st0" width="14.3" height="21.5"/>
		<path class="st0" d="M428.8,150.6h-14.3v-32.3h14.3V150.6z M428.8,86h-14.3V53.7h14.3V86z"/>
		<rect x="414.5" y="182.9" class="st0" width="14.3" height="21.5"/>
	</g>
	<g>
		<path class="st1" d="M585.1,659.6c1.6,8.9,9.5,15.2,18.4,15.2c8.9,0,16.8-6.3,18.4-15.2l12.1-64.7c1.6-7.4-4.2-14.2-11.6-14.2
			h-38.4c-7.4,0-13.1,6.8-11.6,14.2l3.2,17.4H470.5c0-17.4-14.2-31.6-31.6-31.6c-17.4,0-31.6,14.2-31.6,31.6H301.7l3.2-17.4
			c1.6-7.4-4.2-14.2-11.6-14.2h-38.4c-7.4,0-13.1,6.8-11.6,14.2l12.1,64.7c1.6,8.9,9.5,15.2,18.4,15.2c8.9,0,16.8-6.3,18.4-15.2
			l2.6-13.7l118.8,23.7c-4.2,5.3-6.8,12.1-6.8,19.5h-27.3c-2.6,0-4.7,2.1-4.7,4.7v39.4L287,775.3c-4.2,2.1-6.8,5.8-6.8,10.5v43.1
			c0,6.3,5.3,11.6,11.6,11.6s11.6-5.3,11.6-11.6v-36.3l86.8-41h96.8l86.8,41v36.3c0,6.3,5.3,11.6,11.6,11.6s11.6-5.3,11.6-11.6
			v-43.1c0-4.7-2.6-8.4-6.8-10.5L502,733.2v-39.4c0-2.6-2.1-4.7-4.7-4.7h-26.8c0-7.4-2.6-14.2-6.8-19.5l118.8-23.7L585.1,659.6z"/>
		<path class="st1" d="M481.5,760.6h-85.2c-3.2,0-5.8,3.2-4.2,6.3c6.8,17.9,25.2,31,47.3,31c22.1,0,40.5-13.1,47.3-31
			C487.3,763.7,484.7,760.6,481.5,760.6z M438.9,788.4c-5.3,0-9.5-4.2-9.5-9.5s4.2-9.5,9.5-9.5c5.3,0,9.5,4.2,9.5,9.5
			S444.2,788.4,438.9,788.4z"/>
		<path class="st1" d="M214.9,565.5c5.3,0,30-2.1,48.4-5.3c6.8-1.1,14.2-1.1,21.6,0c18.4,3.2,43.1,5.3,48.4,5.3
			c7.9,0,14.7-5.8,14.7-12.6c0-6.8-6.8-12.6-14.7-12.6c-5.3,0-30,2.1-48.4,5.3c-6.8,1.1-14.2,1.1-21.6,0
			c-18.4-3.2-43.1-5.3-48.4-5.3c-7.9,0-14.7,5.8-14.7,12.6C200.2,559.7,207,565.5,214.9,565.5z"/>
		<path class="st1" d="M614.6,545.5c-6.8,1.1-14.2,1.1-21.6,0c-18.4-3.2-43.1-5.3-48.4-5.3c-7.9,0-14.7,5.8-14.7,12.6
			c0,6.8,6.8,12.6,14.7,12.6c5.3,0,30-2.1,48.4-5.3c6.8-1.1,14.2-1.1,21.6,0c18.4,3.2,43.1,5.3,48.4,5.3c7.9,0,14.7-5.8,14.7-12.6
			c0-6.8-6.8-12.6-14.7-12.6C657.7,540.2,633,542.3,614.6,545.5z"/>
	</g>
</g>
</svg>
