<?xml version="1.0" encoding="utf-8"?>
<!-- Generator: Adobe Illustrator 21.1.0, SVG Export Plug-In . SVG Version: 6.00 Build 0)  -->
<svg version="1.1" id="Capa_1" xmlns="http://www.w3.org/2000/svg" xmlns:xlink="http://www.w3.org/1999/xlink" x="0px" y="0px"
	 viewBox="0 0 771.7 1225" style="enable-background:new 0 0 771.7 1225;" xml:space="preserve">
<style type="text/css">
	.st0{fill:#D7D9DD;}
	.st1{fill:#C4E86B;}
</style>
<g>
	<path class="st0" d="M738.5,0c-18.3,0-33.2,14.3-33.2,32c0,14.3,9.9,26.3,23.4,30.4v756.2l-373,205.5l-290.1-161
		c0.5-2.3,0.9-4.6,0.9-7.1c0-17.6-14.9-32-33.2-32C14.9,824,0,838.4,0,856c0,17.7,14.9,32,33.2,32c8.7,0,16.6-3.3,22.5-8.6
		l299.9,166.5l392.6-216.3V62.3c13.5-4,23.4-16,23.4-30.4C771.7,14.3,756.8,0,738.5,0z"/>
	<polygon class="st0" points="360.7,183.2 698.1,366.8 707.8,350.4 360.8,161.6 11.2,350.4 20.8,366.8 	"/>
	<g>
		<rect x="353.3" y="1050.1" class="st0" width="12.2" height="18.4"/>
		<path class="st0" d="M365.6,1179h-12.2v-27.6h12.2V1179z M365.6,1123.7h-12.2v-27.6h12.2V1123.7z"/>
		<rect x="353.3" y="1206.6" class="st0" width="12.2" height="18.4"/>
	</g>
	<g>
		<path class="st1" d="M348.4,512.6c4.6,0.8,9.2,1.1,13.9,0.9c4.7,0.2,9.4-0.2,14-1.1c1.1-1.3,2.1-2.8,3-4.2
			c0.9-1.2,1.6-2.5,2.2-3.8c-1.3-3.1-3.6-5.6-6.5-7.2c-7.8-4.5-17.5-4.5-25.3,0c-3,1.6-5.3,4.1-6.6,7.2c0.7,1.6,1.6,3.1,2.7,4.5
			C346.5,510,347.4,511.3,348.4,512.6z"/>
		<path class="st1" d="M438.7,732.9c-5.4,4.9-10.7,9.8-15.3,14.3c-7.8,7.4-15.2,15.4-21.9,23.8c-0.3,0.4,0.9,2.5,2.8,4.6
			c1.8,2.1,3.2,3.1,3.6,2.9c9.3-5.4,18.2-11.5,26.7-18.2c5.3-4,10.7-8.4,16.5-13.1c3.6-3,6.8-6.4,9.5-10.2c4.7,3.3,9.5,6.3,14.6,8.9
			c3.8,2,8,4.2,12.3,6.2l6.6,3l3.4,1.5c1.3,0.5,1.8,0.9,2.8,1.3c6.8,3.4,12.5,8.5,16.7,14.8c3.2,5.1,5.8,10.6,7.7,16.3
			c1.7,0.5,3.4,0.7,5.2,0.6c1.5,0.2,3,0.1,4.4-0.5c2-8,1.3-16.5-2.1-24.1c-4.5-10.7-12.6-19.4-23-24.6c-1.3-0.6-2.9-1.4-3.9-1.8
			l-3.6-1.4l-6.8-2.6c-4.5-1.7-8.9-3.2-13-4.5c-5-1.6-10.1-2.9-15.3-3.9l0.3-0.6c3.4-8.4,4.6-17.6,3.6-26.6c-1-8.3-4-16.3-8.7-23.3
			c-4-5.9-9.2-10.9-15.3-14.5c-2.8-1.6-5.4-3-7.7-4.2c2.1-7,3.6-14.2,4.4-21.5c10.9-9.5,17.5-22.9,18.5-37.2c0-1.7,0-3.6,0-5.1
			c-0.1-1.9-0.3-3.8-0.8-5.7c-0.9-3.5-2.6-6.8-5-9.6c-3.2-3.8-7.4-6.5-12.2-7.8c0.2-0.2,0.4-0.4,0.4-0.6c0.8-7.2,1.6-16.4,2.2-26.8
			c0.5-9.8,2.1-24-4.7-38.3c-3.6-7.1-8.9-13.2-15.3-17.9c-3-2.3-6.2-4.5-9.5-6.4c-3.1-1.8-6.6-3.6-9.9-5.3
			c-11.4-5.3-23-10-34.9-13.9c1-4.3-0.9-8.8-4.7-11.1c0,0-2.5,0-5.3,0s-4.5,0-4.6,0c-3.6,2.3-5.5,6.5-4.7,10.7l-4.2,1.7
			c-3.6,1.3-7.2,2.7-10.5,4.1c-6.9,2.9-13.6,5.8-20.1,8.8l-4.9,2.3c-1.6,0.8-3.2,1.5-5,2.4c-3.6,1.8-7,3.8-10.2,6.1
			c-3.3,2.5-6.3,5.3-8.9,8.5c-2.6,3.1-4.7,6.6-6.4,10.2c-6.4,14.3-4.7,28.7-4.2,38.4c0.5,7.7,1,14.6,1.5,20.6
			c-1.8,2.1-2.7,4.9-2.3,7.7c-6.2,2.7-10.9,7.9-13.1,14.3c-1.1,3.5-1.5,7.1-1.3,10.7c0.3,7.6,2.1,15,5.5,21.8
			c3.4,6.7,8.1,12.7,13.9,17.5c0.8,7,2.2,14,4.3,20.7c-2.6,1.3-5.4,2.9-8.5,4.6c-6.1,3.7-11.3,8.7-15.3,14.5
			c-4.7,7-7.7,14.9-8.7,23.3c-1,9,0.2,18.2,3.6,26.6l0.3,0.6c-5.2,1-10.3,2.3-15.3,3.9c-4.2,1.3-8.6,2.8-13,4.5l-6.8,2.6l-3.6,1.4
			c-1,0.4-2.7,1.2-3.9,1.8c-10.4,5.2-18.6,14-23.1,24.8c-3.3,7.6-4,16.1-1.9,24.1c1.6,0.6,3.4,0.8,5.1,0.6c1.5,0.1,3-0.1,4.4-0.6
			c1.9-5.7,4.5-11.2,7.7-16.3c4.2-6.3,9.9-11.4,16.7-14.8c1-0.4,1.5-0.8,2.8-1.3l3.4-1.5l6.4-3.2c4.3-2,8.5-4.1,12.3-6.2
			c5.1-2.6,9.9-5.6,14.6-8.9c2.7,3.8,5.9,7.2,9.5,10.2c5.7,4.7,11.2,9,16.5,13.1c8.5,6.7,17.4,12.7,26.7,18.2
			c0.5,0.3,2.4-1.3,4.1-3.4c1.8-2.1,2.6-3.6,2.3-4c-6.7-8.4-13.9-16.3-21.6-23.7c-4.7-4.6-9.9-9.5-15.3-14.3c-4.4-4-7.8-9-10-14.5
			c-2.2-5.5-3.1-11.5-2.8-17.4c0.4-5.7,1.9-11.2,4.4-16.3c2.3-4.5,5.3-8.7,9-12.2c1.5-1.5,3-2.9,4.3-4.2c1,2.3,2,4.6,3.2,6.9
			c1.9,3.6,4,7.1,6.3,10.5l0,0v5.6l-0.3,23.6c0,2.8,1.2,5.4,3.3,7.2l0,0c16.8,14.1,34.5,28.7,52.4,43.5c3.6,3,8.9,3,12.5,0
			c17.7-14.3,35.4-29.1,52.4-43.4h0.2c2.1-1.8,3.3-4.4,3.3-7.2l-0.3-23.3v-4.8l0.4-0.6c2.4-3.4,4.5-6.9,6.4-10.5
			c1.2-2.3,2.3-4.6,3.3-6.9l3.6,3.6c3.6,3.6,6.7,7.7,9,12.2c2.6,5.1,4.1,10.6,4.4,16.3c0.4,5.9-0.6,11.9-2.8,17.4
			C446.3,723.9,443,728.8,438.7,732.9z M435.4,570.3h0.3c-1.5,0.5-2.8,1.2-4,2.2c-2.7,3.2-5.3,6.5-7.7,9.9c-0.9,1.7-2.3,3.1-3.8,4.2
			c-1.6,1.1-3.5,1.7-5.4,1.8c-2,0.1-4-0.4-5.7-1.3l-4.6-2.5c-1.7-0.9-3.4-1.7-5.2-2.5c-7.5-3.5-15.4-6-23.5-7.6
			c-9-1.7-18.2-1.9-27.3-0.6c-9.3,1.4-18.3,4.1-26.9,7.8c-2.1,0.9-4.3,1.9-6.4,2.9l-0.8,0.4h-0.4c-0.2,0.1-0.4,0.2-0.7,0.3
			c-0.5,0.2-0.9,0.3-1.4,0.3c-1.9,0.3-3.9-0.2-5.5-1.4c-0.8-0.6-1.4-1.2-1.9-2l-0.4-0.6l-0.8-1.2l-1.5-3l-1.9-3.6l2.5-1.5l5.1-3
			l4.8-2.7c18.5-9.8,39.3-14.3,60.2-12.9c11.8,0.7,23.5,3.2,34.6,7.5c2.5,1,4.9,1.9,7.2,3l6.2,2.9c3.4,1.4,6.8,2.6,10.4,3.6
			C432.4,570.8,434,570.7,435.4,570.3z M292.9,534.8c0-1.5,0-2.7,0.3-4c0.1-1.3,0.2-2.6,0.4-3.9c0.6-5.1,2.1-10.1,4.4-14.8
			c1.2-2.2,2.7-4.2,4.4-6.1c1.9-1.9,3.9-3.6,6.2-5.1c2.5-1.6,5.1-3,7.8-4.3l4.5-2l4.8-2.1c6.5-2.8,13-5.5,19.7-8.2
			c3.3-1.3,6.6-2.6,9.9-3.8l4.9-1.7l1.9-0.6c12.6,4.1,25.3,8.7,36.7,13.7c3.1,1.4,5.9,2.7,8.8,4.3c2.9,1.6,5.6,3.1,8,4.7
			c4.4,2.9,8.1,6.7,10.7,11.2c2.4,4.5,4,9.3,4.7,14.3c0.2,1.3,0.4,2.5,0.5,3.8c0,1.3,0.3,2.5,0.3,3.9l0.5,8.1
			c0.4,7.2,0.9,13.6,1.4,19.2c-1.9-1.5-3.9-3-6.1-4.5l-1.9-1.3l-1.7-1.1l-3.6-2.2c-2.3-1.6-5-2.8-7.6-4.2
			c-12.1-6.1-25.2-10.1-38.6-11.7c-15.8-1.9-31.8-0.7-47.1,3.6c-8.2,2.3-16.1,5.3-23.7,9.2l-5.7,2.9l-5.2,3l-1,0.6
			c0.3-4,0.6-8.4,0.9-13L292.9,534.8z M300.9,686.3L300.9,686.3L300.9,686.3L300.9,686.3L300.9,686.3z M427.5,630.5
			c-1.7,12.8-5.9,25.2-12.1,36.6c-1.7,2.9-3.5,5.7-5.5,8.3l-0.8,1.1c-0.6,0.8-1.2,1.7-1.6,2.7c-1,2-1.5,4.1-1.6,6.3v6.1l-0.5,18.7
			c-14.3,11.5-28.7,23.2-43,35.1c-14.7-12-29.1-23.7-43.2-35l-0.2-18.9v-5.7v-1.2c0-0.6-0.1-1.1-0.2-1.6c-0.2-1.1-0.5-2.1-0.9-3.1
			c-0.4-1-0.8-1.9-1.4-2.8c-0.3-0.4-0.6-0.9-0.8-1.2l-0.4-0.5c-2-2.7-3.8-5.4-5.4-8.3c-6.1-11.1-10.2-23.3-12-35.8l0-0.5
			c-0.3-2.1-1.5-3.9-3.2-5c-5.4-3.5-9.8-8.3-13-13.8c-2.8-4.9-4.6-10.3-5.3-15.9c-0.4-2.2-0.4-4.4,0-6.5c0.4-1.8,1.2-3.5,2.3-5
			c0.9-1.2,2.1-2.3,3.4-3.2l2.7,5.2l1.5,3l0.8,1.5l1.3,2.3c5.7,9,16.3,13.8,26.9,12.2c1.7-0.3,3.3-0.7,4.9-1.3
			c0.8-0.3,1.6-0.6,2.4-1l1.1-0.5l0.7-0.4c1.8-0.9,3.6-1.8,5.4-2.7c7.1-3.3,14.5-5.7,22.1-7.2c7.1-1.3,14.3-1.5,21.5-0.5
			c6.9,1,13.7,2.8,20.2,5.2l4.7,1.9l4.8,2.1c4.4,1.9,9.2,2.5,13.9,1.6c4.3-0.7,8.4-2.6,11.7-5.5c2.9-2.6,5.1-5.9,6.4-9.5
			c1.3-2.9,2.4-5.8,3.3-8.5c3.3,0.9,6.3,3,8.2,5.8c1,1.6,1.7,3.3,2,5.2c0.1,1,0.1,2,0,2.9c0,1.3-0.2,2.5-0.4,3.8
			c-1.7,11.4-8,21.6-17.5,28.1c-1.7,1.2-2.9,3-3.2,5.1L427.5,630.5z"/>
		<path class="st1" d="M491.5,693.5c3.2,1.9,6.7,3.1,10.4,3.6l3.3,0.5c0.6,0,1,0,1.9,0.2c1,0.1,2.1,0.1,3.2,0
			c9.1-1.1,16.3-8.3,17.4-17.4c0.1-1,0.1-2.1,0-3.2c0-0.9,0-1.3-0.2-1.9c-0.2-0.6-0.4-2.3-0.5-3.3c-0.6-3.7-1.8-7.2-3.8-10.4
			c-1.7-0.3-3.4-0.4-5.2-0.3c-1.5-0.1-3,0-4.4,0.3c-1.9,3.2-3.2,6.7-3.8,10.4c-0.2,1.1-0.4,2.2-0.5,3.3c0,0.5,0,1.3-0.2,1.5
			l-0.2,0.3c-0.3,0.3-0.6,0.7-0.9,1c-0.3,0.3-0.6,0.6-1,0.8l-0.3,0.2c-0.2,0-1.1,0-1.5,0.2l-3.1,0.5c-3.7,0.5-7.2,1.7-10.4,3.6
			c-0.3,1.8-0.4,3.6-0.4,5.4C491.2,690.4,491.3,692,491.5,693.5z"/>
		<path class="st1" d="M505.2,497.5c0.5,0,1.3,0,1.5,0.2l0.3,0.2c0.3,0.3,0.7,0.6,1,0.9c0.3,0.3,0.6,0.6,0.8,1l0.2,0.3
			c0,0.2,0,1.1,0.2,1.5c0,1.1,0.3,2.3,0.5,3.3c0.5,3.7,1.7,7.2,3.6,10.4c1.7,0.3,3.5,0.4,5.3,0.3c1.6,0.1,3.2,0,4.8-0.3
			c1.8-3.2,3.1-6.7,3.6-10.3c0.2-1.1,0.4-2.2,0.5-3.3c0.1-1.1,0-1,0.2-1.9c0.1-1,0.1-2.1,0-3.2c-1.1-9.1-8.3-16.3-17.4-17.4
			c-1-0.1-2.1-0.1-3.2,0c-0.9,0-1.3,0-1.9,0.2L502,480c-3.7,0.5-7.3,1.7-10.5,3.6c-0.3,1.7-0.4,3.5-0.3,5.2c-0.1,1.5,0,3,0.3,4.4
			c3.2,1.9,6.8,3.2,10.5,3.8L505.2,497.5z"/>
		<path class="st1" d="M233.1,483.6c-3.2-1.9-6.7-3.1-10.4-3.6l-3.3-0.5c-0.6,0-1,0-1.9-0.2c-1-0.1-2.1-0.1-3.2,0
			c-9.1,1.1-16.3,8.3-17.4,17.4c-0.1,1-0.1,2.1,0,3.2c0,0.9,0,1.3,0.2,1.9c0.2,0.6,0.4,2.3,0.5,3.3c0.6,3.7,1.8,7.2,3.8,10.4
			c1.7,0.3,3.4,0.4,5.1,0.4c1.5,0.1,3,0,4.4-0.3c1.9-3.2,3.2-6.8,3.8-10.5c0.2-1.1,0.4-2.2,0.5-3.3c0-0.5,0-1.3,0.2-1.5l0.2-0.3
			c0.3-0.3,0.6-0.7,0.9-1c0.3-0.4,0.6-0.7,1-1h0.3c0.2,0,1.1,0,1.5-0.2l3.3-0.5c3.7-0.5,7.2-1.7,10.4-3.6c0.3-1.8,0.4-3.7,0.3-5.5
			C233.4,486.6,233.3,485.1,233.1,483.6z"/>
		<path class="st1" d="M219.4,679.4c-0.5,0-1.3,0-1.5-0.2l-0.3-0.2c-0.3-0.3-0.7-0.6-1-0.9c-0.3-0.3-0.6-0.7-0.9-1.1l-0.3-0.2
			c0-0.2,0-1.1-0.2-1.5c0-1.1-0.3-2.3-0.5-3.3c-0.5-3.7-1.7-7.2-3.6-10.4c-1.7-0.3-3.5-0.4-5.3-0.3c-1.6-0.1-3.2,0-4.7,0.3
			c-1.9,3.2-3.1,6.7-3.6,10.4c-0.2,1.1-0.4,2.2-0.5,3.3c-0.1,1.1,0,1-0.2,1.9c-0.1,1-0.1,2.1,0,3.2c1.1,9.2,8.4,16.4,17.6,17.4
			c1,0.1,2.1,0.1,3.2,0c0.9,0,1.3,0,1.9-0.2l3.2-0.4c3.7-0.6,7.2-1.8,10.4-3.8c0.3-1.7,0.4-3.4,0.4-5.2c0.1-1.5,0-3-0.3-4.4
			c-3.2-1.9-6.8-3.2-10.5-3.8L219.4,679.4z"/>
	</g>
</g>
</svg>
