<?xml version="1.0" encoding="utf-8"?>
<!-- Generator: Adobe Illustrator 21.1.0, SVG Export Plug-In . SVG Version: 6.00 Build 0)  -->
<svg version="1.1" id="Capa_1" xmlns="http://www.w3.org/2000/svg" xmlns:xlink="http://www.w3.org/1999/xlink" x="0px" y="0px"
	 viewBox="0 0 779.8 1225.7" style="enable-background:new 0 0 779.8 1225.7;" xml:space="preserve">
<style type="text/css">
	.st0{fill:#D7D9DD;}
	.st1{fill:#B3B2B1;}
</style>
<g>
	<path class="st0" d="M756.1,1162.7V387.5L359.3,168.9l-303,168.2c-6-5.3-13.9-8.7-22.8-8.7C15,328.5,0,342.9,0,360.8
		s15,32.3,33.6,32.3c18.5,0,33.6-14.5,33.6-32.3c0-2.5-0.3-4.8-0.9-7.2l293.1-162.7l376.9,207.7v764.2
		c-13.7,4.1-23.7,16.2-23.7,30.7c0,17.8,15,32.3,33.6,32.3c18.5,0,33.6-14.5,33.6-32.3C779.8,1179,769.8,1166.8,756.1,1162.7z"/>
	<polygon class="st0" points="710,848.1 366.5,1033.6 25.5,848.1 15.8,864.7 366.4,1055.4 719.7,864.7 	"/>
	<g>
		<rect x="353.5" class="st0" width="12.4" height="18.6"/>
		<path class="st0" d="M365.9,130.3h-12.4v-27.9h12.4V130.3z M365.9,74.4h-12.4V46.5h12.4V74.4z"/>
		<rect x="353.5" y="158.2" class="st0" width="12.4" height="18.6"/>
	</g>
	<g>
		<path class="st1" d="M345,682.6c12,0,22.3-8.5,24.9-19.9l9.2-41.7l126.4,27.7l2.5-11.6l7.1,1.5c7.7,1.7,15.5-3.3,17.1-11l6.6-30
			l25.6-4.3l8.7-39.9l-290.3-63.6l-5.1,23.3l-5-1.1c-4.9-1.1-9.9,2.1-11,7.1l-8.9,40.5c-1.1,4.9,2.1,9.9,7.1,11l5,1.1l-5.1,23.3
			l69.5,15.2l-4.8,21.6H256c-9-24.5-30.5-42.7-56.6-47.3v-21.8h-25.4v189.2h25.4V730c26.1-4.6,47.6-22.9,56.6-47.3H345z"/>
		<g>
			<path class="st1" d="M244.9,455.9c-41.5-4.1-78.5,26.3-82.5,67.8l10.7,1c3.5-35.6,35.2-61.6,70.7-58.1L244.9,455.9z"/>
			<path class="st1" d="M237.5,531.1l-10.7-1c0.6-5.9,5.9-10.3,11.8-9.7L237.5,531.1z"/>
			<path class="st1" d="M242.8,477.4c-29.7-2.9-56.1,18.8-58.9,48.5l10.7,1c2.3-23.7,23.4-41.1,47.2-38.8L242.8,477.4z"/>
			<path class="st1" d="M240.7,498.9c-17.8-1.7-33.6,11.3-35.4,29.1l10.7,1c1.2-11.9,11.7-20.5,23.6-19.4L240.7,498.9z"/>
		</g>
	</g>
</g>
</svg>
