<?xml version="1.0" standalone="no"?>
<!DOCTYPE svg PUBLIC "-//W3C//DTD SVG 20010904//EN"
 "http://www.w3.org/TR/2001/REC-SVG-20010904/DTD/svg10.dtd">
<svg version="1.0" xmlns="http://www.w3.org/2000/svg"
 width="700.000000pt" height="700.000000pt" viewBox="0 0 700.000000 700.000000"
 preserveAspectRatio="xMidYMid meet">
<metadata>
Created by potrace 1.11, written by Peter Selinger 2001-2013
</metadata>
<g transform="translate(0.000000,700.000000) scale(0.100000,-0.100000)"
fill="#000000" stroke="none">
<path d="M3298 4248 c-23 -28 -50 -59 -58 -68 -8 -8 -49 -56 -90 -105 -41 -50
-77 -92 -80 -95 -3 -3 -50 -59 -105 -125 -55 -66 -127 -152 -160 -190 -33 -39
-78 -93 -100 -119 -22 -27 -45 -54 -50 -60 -6 -6 -69 -81 -140 -166 -71 -85
-132 -157 -135 -160 -3 -3 -27 -32 -55 -65 -65 -78 -79 -95 -156 -185 -35 -41
-98 -115 -139 -165 -41 -49 -85 -101 -96 -115 -12 -14 -65 -77 -119 -140 -53
-63 -114 -135 -135 -160 -21 -25 -105 -124 -185 -220 -81 -96 -157 -186 -169
-200 -12 -14 -46 -54 -75 -90 -30 -36 -57 -67 -60 -70 -3 -3 -62 -72 -131
-155 -68 -82 -127 -152 -130 -155 -3 -3 -53 -61 -110 -130 -58 -69 -109 -130
-115 -136 -5 -6 -25 -29 -43 -52 -19 -23 -43 -51 -54 -64 -11 -13 -37 -43 -57
-68 -20 -25 -41 -49 -47 -55 -5 -5 -44 -50 -85 -100 -41 -49 -84 -101 -95
-115 -12 -14 -64 -74 -115 -135 -50 -60 -102 -121 -113 -134 -12 -13 -14 -20
-6 -16 8 5 434 288 945 630 512 342 1241 829 1622 1083 l692 462 -1 845 c0
465 -1 845 -3 845 -2 0 -23 -23 -47 -52z"/>
<path d="M3653 3449 l2 -842 1285 -857 c707 -472 1290 -862 1295 -867 6 -6 16
-12 21 -14 11 -4 455 -300 464 -309 3 -3 17 -11 33 -19 15 -8 27 -18 27 -23 0
-4 5 -8 11 -8 6 0 25 -11 42 -24 18 -13 46 -32 62 -42 l30 -18 -20 24 c-11 13
-32 38 -46 55 -15 16 -140 165 -279 330 -139 165 -264 313 -278 329 -14 16
-84 100 -156 185 -71 86 -135 161 -141 167 -5 6 -28 33 -50 60 -69 83 -375
446 -429 508 -28 33 -57 69 -65 80 -8 12 -18 23 -21 26 -4 3 -96 111 -204 240
-109 129 -208 246 -220 260 -11 14 -55 66 -96 115 -41 50 -81 97 -90 106 -17
18 -26 29 -125 149 -38 47 -72 87 -75 90 -5 4 -104 122 -274 324 -22 27 -46
54 -51 60 -6 6 -69 81 -140 166 -72 85 -157 186 -190 225 -33 39 -94 112 -135
161 -41 49 -87 103 -103 119 -15 17 -35 42 -45 58 -9 15 -22 27 -28 27 -9 0
-12 -194 -11 -841z"/>
<path d="M1333 898 c-727 -486 -1319 -885 -1317 -887 2 -3 289 -5 636 -5 l632
-1 78 100 c103 132 369 476 538 695 73 96 137 177 140 180 3 3 25 32 50 65 24
33 49 65 55 71 5 7 19 24 30 40 11 15 25 32 30 38 6 6 46 58 90 116 43 58 84
110 90 117 5 6 42 53 80 103 39 51 98 128 133 171 34 44 61 79 59 79 -2 0
-598 -397 -1324 -882z"/>
<path d="M4360 1754 c8 -10 23 -28 32 -39 20 -25 310 -400 398 -515 36 -47 67
-87 70 -90 3 -3 34 -43 70 -90 36 -47 70 -92 77 -100 7 -8 110 -142 230 -297
120 -155 276 -356 346 -447 94 -121 134 -166 150 -167 89 -4 1250 -3 1252 1 3
5 -2606 1752 -2628 1759 -7 3 -6 -3 3 -15z"/>
<path d="M3275 1469 c-39 -50 -75 -96 -80 -102 -6 -7 -49 -61 -95 -122 -47
-60 -90 -117 -97 -125 -7 -8 -64 -82 -128 -165 -64 -82 -123 -160 -133 -172
-9 -12 -42 -54 -72 -93 -30 -40 -75 -98 -100 -130 -25 -32 -78 -100 -118 -151
-39 -52 -124 -161 -187 -243 -63 -81 -115 -151 -115 -155 0 -4 1157 -7 1192
-2 6 1 10 1551 4 1551 -1 0 -33 -41 -71 -91z"/>
<path d="M3652 786 c0 -718 1 -776 16 -777 59 -3 1151 -3 1170 0 13 2 20 6 15
10 -5 3 -58 70 -119 147 -143 186 -286 370 -354 459 -30 39 -145 187 -255 329
-110 142 -209 270 -220 285 -29 38 -236 305 -245 314 -4 5 -8 -340 -8 -767z"/>
</g>
</svg>
